<?xml version="1.0" encoding="UTF-8" standalone="no"?>
<!DOCTYPE svg PUBLIC "-//W3C//DTD SVG 1.1//EN"
 "http://www.w3.org/Graphics/SVG/1.1/DTD/svg11.dtd">
<!-- Generated by graphviz version 3.0.0 (20221109.1736)
 -->
<!-- Title: D Pages: 1 -->
<svg width="365pt" height="332pt"
 viewBox="0.00 0.00 365.00 332.00" xmlns="http://www.w3.org/2000/svg" xmlns:xlink="http://www.w3.org/1999/xlink">
<g id="page0,1_graph0" class="graph" transform="scale(1 1) rotate(0) translate(4 328)">
<title>D</title>
<polygon fill="white" stroke="transparent" points="-4,4 -4,-328 361,-328 361,4 -4,4"/>
<!-- dev -->
<g id="node1" class="node">
<title>dev</title>
<ellipse fill="none" stroke="black" cx="222" cy="-234" rx="113.18" ry="18"/>
<text text-anchor="middle" x="222" y="-230.3" font-family="Times,serif" font-size="14.00">cria/modifica/deleta arquivos</text>
</g>
<!-- add -->
<g id="node4" class="node">
<title>add</title>
<polygon fill="none" stroke="black" points="194,-180 120,-180 120,-144 194,-144 194,-180"/>
<text text-anchor="middle" x="157" y="-158.3" font-family="mono" font-size="14.00">git add</text>
</g>
<!-- dev&#45;&gt;add -->
<g id="edge3" class="edge">
<title>dev&#45;&gt;add</title>
<path fill="none" stroke="black" d="M206.27,-216.05C198.4,-207.58 188.73,-197.17 180.04,-187.82"/>
<polygon fill="black" stroke="black" points="182.41,-185.22 173.04,-180.28 177.28,-189.98 182.41,-185.22"/>
</g>
<!-- init -->
<g id="node2" class="node">
<title>init</title>
<polygon fill="none" stroke="black" points="198.5,-324 115.5,-324 115.5,-288 198.5,-288 198.5,-324"/>
<text text-anchor="middle" x="157" y="-302.3" font-family="mono" font-size="14.00">git init</text>
</g>
<!-- init&#45;&gt;dev -->
<g id="edge1" class="edge">
<title>init&#45;&gt;dev</title>
<path fill="none" stroke="black" d="M173.07,-287.7C180.94,-279.22 190.56,-268.86 199.17,-259.58"/>
<polygon fill="black" stroke="black" points="201.88,-261.81 206.12,-252.1 196.75,-257.05 201.88,-261.81"/>
</g>
<!-- clone -->
<g id="node3" class="node">
<title>clone</title>
<polygon fill="none" stroke="black" points="357,-324 217,-324 217,-288 357,-288 357,-324"/>
<text text-anchor="middle" x="287" y="-302.3" font-family="mono" font-size="14.00">git clone &lt;url&gt;</text>
</g>
<!-- clone&#45;&gt;dev -->
<g id="edge2" class="edge">
<title>clone&#45;&gt;dev</title>
<path fill="none" stroke="black" d="M270.93,-287.7C263.06,-279.22 253.44,-268.86 244.83,-259.58"/>
<polygon fill="black" stroke="black" points="247.25,-257.05 237.88,-252.1 242.12,-261.81 247.25,-257.05"/>
</g>
<!-- commit -->
<g id="node5" class="node">
<title>commit</title>
<polygon fill="none" stroke="black" points="314,-108 0,-108 0,-72 314,-72 314,-108"/>
<text text-anchor="middle" x="157" y="-86.3" font-family="mono" font-size="14.00">git commit &#45;m &quot;&lt;Mensagem de commit&gt;&quot;</text>
</g>
<!-- add&#45;&gt;commit -->
<g id="edge4" class="edge">
<title>add&#45;&gt;commit</title>
<path fill="none" stroke="black" d="M157,-143.7C157,-135.98 157,-126.71 157,-118.11"/>
<polygon fill="black" stroke="black" points="160.5,-118.1 157,-108.1 153.5,-118.1 160.5,-118.1"/>
</g>
<!-- commit&#45;&gt;dev -->
<g id="edge5" class="edge">
<title>commit&#45;&gt;dev</title>
<path fill="none" stroke="black" d="M176.16,-108.43C185.61,-118.04 196.37,-130.7 203,-144 212.67,-163.38 217.43,-187.53 219.77,-205.78"/>
<polygon fill="black" stroke="black" points="216.29,-206.21 220.88,-215.76 223.25,-205.44 216.29,-206.21"/>
</g>
<!-- push -->
<g id="node6" class="node">
<title>push</title>
<polygon fill="none" stroke="black" points="340,-36 158,-36 158,0 340,0 340,-36"/>
<text text-anchor="middle" x="249" y="-14.3" font-family="mono" font-size="14.00">git push origin HEAD</text>
</g>
<!-- commit&#45;&gt;push -->
<g id="edge6" class="edge">
<title>commit&#45;&gt;push</title>
<path fill="none" stroke="black" d="M179.74,-71.7C191.44,-62.8 205.86,-51.82 218.51,-42.2"/>
<polygon fill="black" stroke="black" points="220.68,-44.94 226.52,-36.1 216.44,-39.37 220.68,-44.94"/>
</g>
<!-- push&#45;&gt;dev -->
<g id="edge7" class="edge">
<title>push&#45;&gt;dev</title>
<path fill="none" stroke="black" d="M286.39,-36.2C300.54,-44.8 315.13,-56.68 323,-72 330.31,-86.23 328.33,-92.91 323,-108 308.57,-148.83 274.51,-186.09 249.93,-209.11"/>
<polygon fill="black" stroke="black" points="247.34,-206.74 242.32,-216.07 252.06,-211.91 247.34,-206.74"/>
</g>
</g>
</svg>
