<?xml version="1.0" encoding="UTF-8" standalone="no"?>
<!DOCTYPE svg PUBLIC "-//W3C//DTD SVG 1.1//EN"
 "http://www.w3.org/Graphics/SVG/1.1/DTD/svg11.dtd">
<!-- Generated by graphviz version 3.0.0 (20221109.1736)
 -->
<!-- Title: D Pages: 1 -->
<svg width="243pt" height="46pt"
 viewBox="0.00 0.00 242.69 46.32" xmlns="http://www.w3.org/2000/svg" xmlns:xlink="http://www.w3.org/1999/xlink">
<g id="graph0" class="graph" transform="scale(1 1) rotate(0) translate(4 42.32)">
<title>D</title>
<polygon fill="white" stroke="transparent" points="-4,4 -4,-42.32 238.69,-42.32 238.69,4 -4,4"/>
<!-- front -->
<g id="node1" class="node">
<title>front</title>
<ellipse fill="none" stroke="black" cx="36.4" cy="-20.32" rx="36.29" ry="18"/>
<text text-anchor="middle" x="36.4" y="-16.62" font-family="Times,serif" font-size="14.00">Cliente</text>
</g>
<!-- back -->
<g id="node2" class="node">
<title>back</title>
<ellipse fill="none" stroke="black" cx="193.74" cy="-20.32" rx="40.89" ry="18"/>
<text text-anchor="middle" x="193.74" y="-16.62" font-family="Times,serif" font-size="14.00">Servidor</text>
</g>
<!-- front&#45;&gt;back -->
<g id="edge1" class="edge">
<title>front&#45;&gt;back</title>
<path fill="none" stroke="black" d="M73.01,-21.08C78.95,-21.18 85.05,-21.26 90.79,-21.32 110.35,-21.5 115.24,-21.48 134.79,-21.32 137.3,-21.29 139.87,-21.27 142.47,-21.24"/>
<polygon fill="black" stroke="black" points="142.58,-24.74 152.53,-21.1 142.48,-17.74 142.58,-24.74"/>
<text text-anchor="middle" x="140.51" y="-25.25" font-family="Times,serif" font-size="14.00">requisição</text>
</g>
<!-- back&#45;&gt;front -->
<g id="edge2" class="edge">
<title>back&#45;&gt;front</title>
<path fill="none" stroke="black" d="M161.87,-8.84C153.23,-6.15 143.75,-3.68 134.79,-2.32 115.46,0.62 110.09,0.85 90.79,-2.32 85.56,-3.17 80.14,-4.48 74.86,-6"/>
<polygon fill="black" stroke="black" points="73.43,-2.78 64.95,-9.13 75.54,-9.45 73.43,-2.78"/>
<text text-anchor="middle" x="112.79" y="-6.12" font-family="Times,serif" font-size="14.00">resposta</text>
</g>
</g>
</svg>
